<svg xmlns="http://www.w3.org/2000/svg" viewBox="0 0 512 512">
  <defs>
    <linearGradient id="bg" x1="0" y1="0" x2="1" y2="1">
      <stop offset="0%" stop-color="#2563eb"/>
      <stop offset="100%" stop-color="#7c3aed"/>
    </linearGradient>
  </defs>
  <rect width="512" height="512" rx="96" fill="url(#bg)"/>
  <!-- 치아 아이콘 -->
  <path d="M256 80c-50 0-90 30-100 75-8 35 5 70 15 100 12 35 20 65 20 95 0 25 15 50 35 55 15 4 25-5 30-25 5-20 10-40 20-40s15 20 20 40c5 20 15 29 30 25 20-5 35-30 35-55 0-30 8-60 20-95 10-30 23-65 15-100-10-45-50-75-100-75z" fill="white" opacity="0.15" transform="translate(0,-10) scale(0.5) translate(256,60)"/>
  <!-- 소아 텍스트 -->
  <text x="256" y="240" text-anchor="middle" font-family="'Malgun Gothic','Apple SD Gothic Neo',sans-serif" font-size="180" font-weight="900" fill="white">소아</text>
  <!-- 하단 서브텍스트 -->
  <text x="256" y="340" text-anchor="middle" font-family="'Malgun Gothic','Apple SD Gothic Neo',sans-serif" font-size="52" font-weight="700" fill="rgba(255,255,255,0.8)">치과처방</text>
  <!-- Rx 심볼 -->
  <text x="256" y="420" text-anchor="middle" font-family="serif" font-size="68" font-weight="700" fill="rgba(255,255,255,0.5)">℞</text>
</svg>
